<svg width="18" height="18" viewBox="0 0 18 18" fill="none" xmlns="http://www.w3.org/2000/svg">
<path d="M14.206 9.9626C14.0302 9.5583 13.7595 9.20322 13.2181 8.90439C12.9383 8.74618 12.6377 8.62785 12.3251 8.55283C12.5354 8.45512 12.7289 8.32458 12.8982 8.16611C13.1471 7.94362 13.3357 7.66186 13.4466 7.34697C13.5487 7.02698 13.5904 6.6908 13.5696 6.35557C13.531 5.76494 13.415 5.19189 13.1056 4.78057C12.7962 4.36924 12.3603 4.05283 11.7837 3.83135C11.3407 3.6626 10.8872 3.55713 10.1841 3.51846V1.27197H8.77785V3.52197H7.65285V1.27197H6.21145V3.52197H3.15039V5.20947H4.1302C4.43605 5.20947 4.64348 5.2376 4.74895 5.29033C4.84708 5.33232 4.92777 5.4068 4.97746 5.50127C5.02316 5.58916 5.04426 5.79658 5.04426 6.1165V12.2056C5.04426 12.522 5.02316 12.7259 4.97746 12.8173C4.93176 12.9087 4.90715 12.9896 4.79816 13.0388C4.68918 13.088 4.68566 13.0845 4.38332 13.0845H3.4552L3.15039 14.772H6.20898V17.022H7.65039V14.772H8.77539V17.022H10.1816V14.7579C11.0957 14.7122 11.7461 14.5927 12.2699 14.3958C12.9484 14.1427 13.4688 13.7735 13.8414 13.2884C14.2141 12.8032 14.3336 12.0614 14.3663 11.4884C14.3898 10.9786 14.3652 10.3212 14.206 9.9626ZM7.65039 5.42041H8.77539V8.02197H7.65039V5.42041ZM7.65039 12.8735V9.70947H8.77539V12.8735H7.65039ZM10.1816 5.55752C10.3926 5.64541 10.5297 5.82119 10.6668 6.004C10.818 6.20439 10.8953 6.47158 10.8953 6.75635C10.8953 7.03057 10.7934 7.26611 10.6316 7.47705C10.498 7.64932 10.3926 7.76885 10.1816 7.86729V5.55752ZM11.1941 12.1212C10.9199 12.3638 10.7617 12.4763 10.4172 12.6063C10.3401 12.6335 10.2615 12.6558 10.1816 12.6731V9.76221C10.3192 9.78256 10.453 9.82283 10.5789 9.88174C10.8531 9.99775 11.1133 10.1243 11.275 10.3458C11.4543 10.6002 11.5524 10.9029 11.5563 11.2142C11.5552 11.5974 11.4568 11.8892 11.1931 12.1212H11.1941Z" fill="#808080"/>
</svg>
